<?xml version="1.0" encoding="utf-8"?>
<!-- Generator: Adobe Illustrator 27.8.0, SVG Export Plug-In . SVG Version: 6.00 Build 0)  -->
<svg version="1.1" id="Layer_1" xmlns="http://www.w3.org/2000/svg" xmlns:xlink="http://www.w3.org/1999/xlink" x="0px" y="0px"
	 viewBox="0 0 60 60" style="enable-background:new 0 0 60 60;" xml:space="preserve">
<style type="text/css">
	.st0{fill:#FFFFFF;}
	.st1{fill:none;stroke:#000000;stroke-width:0.25;stroke-linecap:round;}
	.st2{fill:none;stroke:#000000;stroke-width:0.1;stroke-linecap:round;}
</style>
<g id="ISO::Visible::Curves::Default">
	<g id="XMLID_00000057867806174919544510000018305163494413554091_">
		<g>
			<polygon class="st0" points="59.7,30 59.7,34.1 44.8,42.7 44.8,38.6 			"/>
			<polygon class="st0" points="59.7,25.9 59.7,30 44.8,38.6 44.8,34.5 			"/>
			<polygon class="st0" points="59.7,25.9 44.8,34.5 15.1,17.3 30,8.7 			"/>
			<polygon class="st0" points="44.8,38.6 44.8,42.7 15.1,25.5 15.1,21.4 			"/>
			<polygon class="st0" points="44.8,34.5 44.8,38.6 15.1,21.4 15.1,17.3 			"/>
			<polygon class="st0" points="44.8,42.7 30,51.3 0.3,34.1 15.1,25.5 15.1,25.5 			"/>
		</g>
		<g>
			<line class="st1" x1="15.1" y1="25.5" x2="44.8" y2="42.7"/>
			<line class="st1" x1="59.7" y1="34.1" x2="59.7" y2="30"/>
			<line class="st1" x1="15.1" y1="21.4" x2="44.8" y2="38.6"/>
			<line class="st1" x1="44.8" y1="34.5" x2="59.7" y2="25.9"/>
			<line class="st1" x1="44.8" y1="38.6" x2="59.7" y2="30"/>
			<line class="st1" x1="15.1" y1="17.3" x2="44.8" y2="34.5"/>
			<line class="st1" x1="44.8" y1="42.7" x2="59.7" y2="34.1"/>
			<line class="st1" x1="15.1" y1="25.5" x2="15.1" y2="21.4"/>
			<line class="st1" x1="44.8" y1="42.7" x2="44.8" y2="38.6"/>
			<polyline class="st2" points="15.1,25.5 0.3,34.1 30,51.3 44.8,42.7 			"/>
			<line class="st1" x1="30" y1="8.7" x2="15.1" y2="17.3"/>
			<line class="st1" x1="59.7" y1="25.9" x2="30" y2="8.7"/>
			<line class="st1" x1="59.7" y1="30" x2="59.7" y2="25.9"/>
			<line class="st1" x1="44.8" y1="38.6" x2="44.8" y2="34.5"/>
			<line class="st1" x1="15.1" y1="21.4" x2="15.1" y2="17.3"/>
		</g>
	</g>
</g>
</svg>
