<?xml version="1.0" encoding="utf-8"?>
<!-- Generator: Adobe Illustrator 27.8.0, SVG Export Plug-In . SVG Version: 6.00 Build 0)  -->
<svg version="1.1" id="Layer_1" xmlns="http://www.w3.org/2000/svg" xmlns:xlink="http://www.w3.org/1999/xlink" x="0px" y="0px"
	 viewBox="0 0 60 60" style="enable-background:new 0 0 60 60;" xml:space="preserve">
<style type="text/css">
	.st0{fill:#FFFFFF;}
	.st1{fill:none;stroke:#000000;stroke-width:0.25;stroke-linecap:round;}
</style>
<g id="ISO::Visible::Curves::Default">
	<g id="XMLID_00000041289606589389691830000008592441013854173626_">
		<g>
			<polygon class="st0" points="59.7,27.9 59.7,32.1 30,49.2 30,45.1 			"/>
			<polygon class="st0" points="30,45.1 30,49.2 0.3,32.1 0.3,27.9 			"/>
			<polygon class="st0" points="59.7,27.9 30,45.1 0.3,27.9 30,10.8 			"/>
		</g>
		<g>
			<line class="st1" x1="30" y1="45.1" x2="59.7" y2="27.9"/>
			<line class="st1" x1="30" y1="10.8" x2="0.3" y2="27.9"/>
			<line class="st1" x1="59.7" y1="27.9" x2="30" y2="10.8"/>
			<line class="st1" x1="30" y1="49.2" x2="59.7" y2="32.1"/>
			<line class="st1" x1="0.3" y1="32.1" x2="0.3" y2="27.9"/>
			<line class="st1" x1="30" y1="49.2" x2="30" y2="45.1"/>
			<line class="st1" x1="0.3" y1="32.1" x2="30" y2="49.2"/>
			<line class="st1" x1="59.7" y1="32.1" x2="59.7" y2="27.9"/>
			<line class="st1" x1="0.3" y1="27.9" x2="30" y2="45.1"/>
		</g>
	</g>
</g>
</svg>
